<mxfile host="app.diagrams.net" agent="Mozilla/5.0 (Windows NT 10.0; Win64; x64; rv:131.0) Gecko/20100101 Firefox/131.0" version="24.8.0">
  <diagram name="Страница — 1" id="K74k6pUo18aNp9_cG7Ek">
    <mxGraphModel dx="1434" dy="745" grid="1" gridSize="10" guides="1" tooltips="1" connect="1" arrows="1" fold="1" page="1" pageScale="1" pageWidth="827" pageHeight="2000" math="0" shadow="0">
      <root>
        <mxCell id="0" />
        <mxCell id="1" parent="0" />
        <mxCell id="M3vEg7xzVZKepDbDYmci-11" value="HTTP Request" style="edgeStyle=orthogonalEdgeStyle;rounded=0;orthogonalLoop=1;jettySize=auto;html=1;exitX=1;exitY=0.25;exitDx=0;exitDy=0;entryX=0;entryY=0.25;entryDx=0;entryDy=0;fontSize=8;" parent="1" source="M3vEg7xzVZKepDbDYmci-1" target="M3vEg7xzVZKepDbDYmci-4" edge="1">
          <mxGeometry y="13" relative="1" as="geometry">
            <mxPoint y="1" as="offset" />
          </mxGeometry>
        </mxCell>
        <mxCell id="M3vEg7xzVZKepDbDYmci-1" value="User" style="rounded=0;whiteSpace=wrap;html=1;" parent="1" vertex="1">
          <mxGeometry x="160" y="120" width="100" height="50" as="geometry" />
        </mxCell>
        <mxCell id="M3vEg7xzVZKepDbDYmci-25" value="Session Token" style="edgeStyle=orthogonalEdgeStyle;rounded=0;orthogonalLoop=1;jettySize=auto;html=1;exitX=0.25;exitY=1;exitDx=0;exitDy=0;entryX=0.25;entryY=0;entryDx=0;entryDy=0;fontSize=8;" parent="1" source="M3vEg7xzVZKepDbDYmci-3" target="M3vEg7xzVZKepDbDYmci-5" edge="1">
          <mxGeometry x="0.3793" y="-35" relative="1" as="geometry">
            <mxPoint as="offset" />
          </mxGeometry>
        </mxCell>
        <mxCell id="M3vEg7xzVZKepDbDYmci-48" value="Auth Result" style="edgeStyle=orthogonalEdgeStyle;rounded=0;orthogonalLoop=1;jettySize=auto;html=1;exitX=0.75;exitY=0;exitDx=0;exitDy=0;entryX=0.75;entryY=1;entryDx=0;entryDy=0;strokeWidth=2;fontSize=8;" parent="1" source="M3vEg7xzVZKepDbDYmci-3" target="M3vEg7xzVZKepDbDYmci-4" edge="1">
          <mxGeometry x="-0.7443" y="-20" relative="1" as="geometry">
            <Array as="points">
              <mxPoint x="115" y="250" />
              <mxPoint x="435" y="250" />
            </Array>
            <mxPoint as="offset" />
          </mxGeometry>
        </mxCell>
        <mxCell id="M3vEg7xzVZKepDbDYmci-3" value="Authorization" style="rounded=0;whiteSpace=wrap;html=1;" parent="1" vertex="1">
          <mxGeometry x="40" y="280" width="100" height="50" as="geometry" />
        </mxCell>
        <mxCell id="M3vEg7xzVZKepDbDYmci-12" value="HTTP Response" style="edgeStyle=orthogonalEdgeStyle;rounded=0;orthogonalLoop=1;jettySize=auto;html=1;exitX=0;exitY=0.75;exitDx=0;exitDy=0;entryX=1;entryY=0.75;entryDx=0;entryDy=0;fontSize=8;" parent="1" source="M3vEg7xzVZKepDbDYmci-4" target="M3vEg7xzVZKepDbDYmci-1" edge="1">
          <mxGeometry y="-7" relative="1" as="geometry">
            <mxPoint y="-1" as="offset" />
          </mxGeometry>
        </mxCell>
        <mxCell id="M3vEg7xzVZKepDbDYmci-13" value="KubeAPI Request" style="edgeStyle=orthogonalEdgeStyle;rounded=0;orthogonalLoop=1;jettySize=auto;html=1;exitX=1;exitY=0.25;exitDx=0;exitDy=0;entryX=0;entryY=0.25;entryDx=0;entryDy=0;fontSize=8;" parent="1" source="M3vEg7xzVZKepDbDYmci-4" target="M3vEg7xzVZKepDbDYmci-10" edge="1">
          <mxGeometry y="13" relative="1" as="geometry">
            <mxPoint as="offset" />
          </mxGeometry>
        </mxCell>
        <mxCell id="M3vEg7xzVZKepDbDYmci-19" value="Authentication Request" style="edgeStyle=orthogonalEdgeStyle;rounded=0;orthogonalLoop=1;jettySize=auto;html=1;exitX=0.25;exitY=1;exitDx=0;exitDy=0;entryX=0.25;entryY=0;entryDx=0;entryDy=0;fontSize=8;" parent="1" source="M3vEg7xzVZKepDbDYmci-4" target="M3vEg7xzVZKepDbDYmci-3" edge="1">
          <mxGeometry x="0.5816" y="-15" relative="1" as="geometry">
            <mxPoint as="offset" />
          </mxGeometry>
        </mxCell>
        <mxCell id="M3vEg7xzVZKepDbDYmci-22" value="Request" style="edgeStyle=orthogonalEdgeStyle;rounded=0;orthogonalLoop=1;jettySize=auto;html=1;exitX=0.25;exitY=1;exitDx=0;exitDy=0;entryX=0.25;entryY=0;entryDx=0;entryDy=0;fontSize=8;" parent="1" source="M3vEg7xzVZKepDbDYmci-4" target="M3vEg7xzVZKepDbDYmci-16" edge="1">
          <mxGeometry x="0.926" y="-25" relative="1" as="geometry">
            <mxPoint as="offset" />
          </mxGeometry>
        </mxCell>
        <mxCell id="M3vEg7xzVZKepDbDYmci-23" value="Log Request" style="edgeStyle=orthogonalEdgeStyle;rounded=0;orthogonalLoop=1;jettySize=auto;html=1;exitX=0.25;exitY=1;exitDx=0;exitDy=0;entryX=0.25;entryY=0;entryDx=0;entryDy=0;fontSize=8;" parent="1" source="M3vEg7xzVZKepDbDYmci-4" target="M3vEg7xzVZKepDbDYmci-7" edge="1">
          <mxGeometry x="0.8182" y="-35" relative="1" as="geometry">
            <mxPoint as="offset" />
          </mxGeometry>
        </mxCell>
        <mxCell id="M3vEg7xzVZKepDbDYmci-42" style="edgeStyle=orthogonalEdgeStyle;rounded=0;orthogonalLoop=1;jettySize=auto;html=1;exitX=0.75;exitY=0;exitDx=0;exitDy=0;entryX=0.75;entryY=1;entryDx=0;entryDy=0;" parent="1" source="M3vEg7xzVZKepDbDYmci-4" target="M3vEg7xzVZKepDbDYmci-40" edge="1">
          <mxGeometry relative="1" as="geometry" />
        </mxCell>
        <mxCell id="M3vEg7xzVZKepDbDYmci-43" value="&amp;nbsp;Request" style="edgeStyle=orthogonalEdgeStyle;rounded=0;orthogonalLoop=1;jettySize=auto;html=1;exitX=0.25;exitY=1;exitDx=0;exitDy=0;entryX=0.25;entryY=0;entryDx=0;entryDy=0;fontSize=8;" parent="1" source="M3vEg7xzVZKepDbDYmci-4" target="M3vEg7xzVZKepDbDYmci-34" edge="1">
          <mxGeometry x="0.9259" y="-25" relative="1" as="geometry">
            <mxPoint as="offset" />
          </mxGeometry>
        </mxCell>
        <mxCell id="M3vEg7xzVZKepDbDYmci-53" value="Configure&lt;div style=&quot;font-size: 8px;&quot;&gt;System&lt;/div&gt;" style="edgeStyle=orthogonalEdgeStyle;rounded=0;orthogonalLoop=1;jettySize=auto;html=1;exitX=0.25;exitY=1;exitDx=0;exitDy=0;entryX=0.25;entryY=0;entryDx=0;entryDy=0;fontSize=8;" parent="1" source="M3vEg7xzVZKepDbDYmci-4" target="M3vEg7xzVZKepDbDYmci-49" edge="1">
          <mxGeometry x="0.9535" y="-25" relative="1" as="geometry">
            <mxPoint as="offset" />
          </mxGeometry>
        </mxCell>
        <mxCell id="5Kg0r2Z0x7C4g7Ewz3W_-16" style="edgeStyle=orthogonalEdgeStyle;rounded=0;orthogonalLoop=1;jettySize=auto;html=1;exitX=0.25;exitY=1;exitDx=0;exitDy=0;entryX=0.25;entryY=0;entryDx=0;entryDy=0;" edge="1" parent="1" source="M3vEg7xzVZKepDbDYmci-4" target="5Kg0r2Z0x7C4g7Ewz3W_-4">
          <mxGeometry relative="1" as="geometry" />
        </mxCell>
        <mxCell id="5Kg0r2Z0x7C4g7Ewz3W_-23" value="&lt;font style=&quot;font-size: 8px;&quot;&gt;Schema&lt;br&gt;Request&lt;br&gt;&lt;/font&gt;" style="edgeLabel;html=1;align=center;verticalAlign=middle;resizable=0;points=[];labelBackgroundColor=none;" vertex="1" connectable="0" parent="5Kg0r2Z0x7C4g7Ewz3W_-16">
          <mxGeometry x="0.9722" y="-2" relative="1" as="geometry">
            <mxPoint x="-20" y="-4" as="offset" />
          </mxGeometry>
        </mxCell>
        <mxCell id="5Kg0r2Z0x7C4g7Ewz3W_-17" style="edgeStyle=orthogonalEdgeStyle;rounded=0;orthogonalLoop=1;jettySize=auto;html=1;exitX=0.25;exitY=1;exitDx=0;exitDy=0;entryX=0.25;entryY=0;entryDx=0;entryDy=0;" edge="1" parent="1" source="M3vEg7xzVZKepDbDYmci-4" target="5Kg0r2Z0x7C4g7Ewz3W_-3">
          <mxGeometry relative="1" as="geometry" />
        </mxCell>
        <mxCell id="5Kg0r2Z0x7C4g7Ewz3W_-69" value="Image&lt;br style=&quot;font-size: 8px;&quot;&gt;Replica set" style="edgeLabel;html=1;align=center;verticalAlign=middle;resizable=0;points=[];fontSize=8;labelBackgroundColor=none;" vertex="1" connectable="0" parent="5Kg0r2Z0x7C4g7Ewz3W_-17">
          <mxGeometry x="0.9627" relative="1" as="geometry">
            <mxPoint x="-27" y="1" as="offset" />
          </mxGeometry>
        </mxCell>
        <mxCell id="5Kg0r2Z0x7C4g7Ewz3W_-47" style="edgeStyle=orthogonalEdgeStyle;rounded=0;orthogonalLoop=1;jettySize=auto;html=1;exitX=0.25;exitY=1;exitDx=0;exitDy=0;entryX=0.25;entryY=0;entryDx=0;entryDy=0;" edge="1" parent="1" source="M3vEg7xzVZKepDbDYmci-4" target="5Kg0r2Z0x7C4g7Ewz3W_-2">
          <mxGeometry relative="1" as="geometry" />
        </mxCell>
        <mxCell id="5Kg0r2Z0x7C4g7Ewz3W_-48" value="Request" style="edgeLabel;html=1;align=center;verticalAlign=middle;resizable=0;points=[];labelBackgroundColor=none;fontSize=8;" vertex="1" connectable="0" parent="5Kg0r2Z0x7C4g7Ewz3W_-47">
          <mxGeometry x="0.9609" y="1" relative="1" as="geometry">
            <mxPoint x="-22" y="1" as="offset" />
          </mxGeometry>
        </mxCell>
        <mxCell id="5Kg0r2Z0x7C4g7Ewz3W_-62" style="edgeStyle=orthogonalEdgeStyle;rounded=0;orthogonalLoop=1;jettySize=auto;html=1;exitX=0.25;exitY=1;exitDx=0;exitDy=0;entryX=0.25;entryY=0;entryDx=0;entryDy=0;" edge="1" parent="1" source="M3vEg7xzVZKepDbDYmci-4" target="M3vEg7xzVZKepDbDYmci-50">
          <mxGeometry relative="1" as="geometry">
            <Array as="points">
              <mxPoint x="385" y="225" />
              <mxPoint x="650" y="225" />
              <mxPoint x="650" y="360" />
              <mxPoint x="705" y="360" />
            </Array>
          </mxGeometry>
        </mxCell>
        <mxCell id="5Kg0r2Z0x7C4g7Ewz3W_-63" value="CRD" style="edgeLabel;html=1;align=center;verticalAlign=middle;resizable=0;points=[];fontSize=8;labelBackgroundColor=none;" vertex="1" connectable="0" parent="5Kg0r2Z0x7C4g7Ewz3W_-62">
          <mxGeometry x="0.9421" y="-1" relative="1" as="geometry">
            <mxPoint x="-13" y="2" as="offset" />
          </mxGeometry>
        </mxCell>
        <mxCell id="M3vEg7xzVZKepDbDYmci-4" value="API Gateway" style="rounded=0;whiteSpace=wrap;html=1;" parent="1" vertex="1">
          <mxGeometry x="360" y="120" width="100" height="50" as="geometry" />
        </mxCell>
        <mxCell id="M3vEg7xzVZKepDbDYmci-26" value="" style="edgeStyle=orthogonalEdgeStyle;rounded=0;orthogonalLoop=1;jettySize=auto;html=1;exitX=0.25;exitY=1;exitDx=0;exitDy=0;entryX=0.25;entryY=0;entryDx=0;entryDy=0;fontSize=8;" parent="1" source="M3vEg7xzVZKepDbDYmci-5" target="M3vEg7xzVZKepDbDYmci-6" edge="1">
          <mxGeometry x="0.3548" y="-45" relative="1" as="geometry">
            <mxPoint as="offset" />
          </mxGeometry>
        </mxCell>
        <mxCell id="5Kg0r2Z0x7C4g7Ewz3W_-33" value="Session Token" style="edgeLabel;html=1;align=center;verticalAlign=middle;resizable=0;points=[];fontSize=8;labelBackgroundColor=none;" vertex="1" connectable="0" parent="M3vEg7xzVZKepDbDYmci-26">
          <mxGeometry x="0.2473" relative="1" as="geometry">
            <mxPoint x="-32" as="offset" />
          </mxGeometry>
        </mxCell>
        <mxCell id="M3vEg7xzVZKepDbDYmci-29" value="SSO Result" style="edgeStyle=orthogonalEdgeStyle;rounded=0;orthogonalLoop=1;jettySize=auto;html=1;exitX=0.75;exitY=0;exitDx=0;exitDy=0;entryX=0.75;entryY=1;entryDx=0;entryDy=0;fontSize=8;" parent="1" source="M3vEg7xzVZKepDbDYmci-5" target="M3vEg7xzVZKepDbDYmci-3" edge="1">
          <mxGeometry x="-0.3793" y="-25" relative="1" as="geometry">
            <mxPoint as="offset" />
          </mxGeometry>
        </mxCell>
        <mxCell id="M3vEg7xzVZKepDbDYmci-5" value="Single Sing-On" style="rounded=0;whiteSpace=wrap;html=1;" parent="1" vertex="1">
          <mxGeometry x="40" y="359" width="100" height="50" as="geometry" />
        </mxCell>
        <mxCell id="M3vEg7xzVZKepDbDYmci-28" value="" style="edgeStyle=orthogonalEdgeStyle;rounded=0;orthogonalLoop=1;jettySize=auto;html=1;exitX=0.75;exitY=0;exitDx=0;exitDy=0;entryX=0.75;entryY=1;entryDx=0;entryDy=0;fontSize=8;" parent="1" source="M3vEg7xzVZKepDbDYmci-6" target="M3vEg7xzVZKepDbDYmci-5" edge="1">
          <mxGeometry x="-0.3548" y="-25" relative="1" as="geometry">
            <mxPoint as="offset" />
          </mxGeometry>
        </mxCell>
        <mxCell id="5Kg0r2Z0x7C4g7Ewz3W_-35" value="&lt;font style=&quot;font-size: 8px;&quot;&gt;Session Token&lt;br&gt;&lt;/font&gt;" style="edgeLabel;html=1;align=center;verticalAlign=middle;resizable=0;points=[];" vertex="1" connectable="0" parent="M3vEg7xzVZKepDbDYmci-28">
          <mxGeometry x="-0.3763" y="-1" relative="1" as="geometry">
            <mxPoint x="27" y="-3" as="offset" />
          </mxGeometry>
        </mxCell>
        <mxCell id="M3vEg7xzVZKepDbDYmci-6" value="Stored Session Keys" style="shape=process;whiteSpace=wrap;html=1;backgroundOutline=1;" parent="1" vertex="1">
          <mxGeometry x="40" y="440" width="100" height="50" as="geometry" />
        </mxCell>
        <mxCell id="M3vEg7xzVZKepDbDYmci-32" style="edgeStyle=orthogonalEdgeStyle;rounded=0;orthogonalLoop=1;jettySize=auto;html=1;exitX=0.25;exitY=1;exitDx=0;exitDy=0;entryX=0.25;entryY=0;entryDx=0;entryDy=0;" parent="1" source="M3vEg7xzVZKepDbDYmci-7" target="M3vEg7xzVZKepDbDYmci-9" edge="1">
          <mxGeometry relative="1" as="geometry" />
        </mxCell>
        <mxCell id="5Kg0r2Z0x7C4g7Ewz3W_-42" value="Log Request" style="edgeLabel;html=1;align=center;verticalAlign=middle;resizable=0;points=[];fontSize=8;labelBackgroundColor=none;" vertex="1" connectable="0" parent="M3vEg7xzVZKepDbDYmci-32">
          <mxGeometry x="-0.0077" relative="1" as="geometry">
            <mxPoint x="-29" as="offset" />
          </mxGeometry>
        </mxCell>
        <mxCell id="M3vEg7xzVZKepDbDYmci-46" value="Logs" style="edgeStyle=orthogonalEdgeStyle;rounded=0;orthogonalLoop=1;jettySize=auto;html=1;exitX=0.75;exitY=0;exitDx=0;exitDy=0;entryX=0.75;entryY=1;entryDx=0;entryDy=0;strokeWidth=2;fontSize=8;" parent="1" source="M3vEg7xzVZKepDbDYmci-7" target="M3vEg7xzVZKepDbDYmci-4" edge="1">
          <mxGeometry x="-0.8182" y="-25" relative="1" as="geometry">
            <mxPoint as="offset" />
          </mxGeometry>
        </mxCell>
        <mxCell id="M3vEg7xzVZKepDbDYmci-7" value="Traffic Monitoring" style="rounded=0;whiteSpace=wrap;html=1;" parent="1" vertex="1">
          <mxGeometry x="360" y="280" width="100" height="50" as="geometry" />
        </mxCell>
        <mxCell id="M3vEg7xzVZKepDbDYmci-33" style="edgeStyle=orthogonalEdgeStyle;rounded=0;orthogonalLoop=1;jettySize=auto;html=1;exitX=0.75;exitY=0;exitDx=0;exitDy=0;entryX=0.75;entryY=1;entryDx=0;entryDy=0;" parent="1" source="M3vEg7xzVZKepDbDYmci-9" target="M3vEg7xzVZKepDbDYmci-7" edge="1">
          <mxGeometry relative="1" as="geometry" />
        </mxCell>
        <mxCell id="5Kg0r2Z0x7C4g7Ewz3W_-41" value="Status" style="edgeLabel;html=1;align=center;verticalAlign=middle;resizable=0;points=[];fontSize=8;labelBackgroundColor=none;" vertex="1" connectable="0" parent="M3vEg7xzVZKepDbDYmci-33">
          <mxGeometry x="-0.1839" relative="1" as="geometry">
            <mxPoint x="25" as="offset" />
          </mxGeometry>
        </mxCell>
        <mxCell id="M3vEg7xzVZKepDbDYmci-9" value="Log Storage" style="shape=process;whiteSpace=wrap;html=1;backgroundOutline=1;" parent="1" vertex="1">
          <mxGeometry x="360" y="359" width="100" height="50" as="geometry" />
        </mxCell>
        <mxCell id="M3vEg7xzVZKepDbDYmci-15" value="KubeAPI Response" style="edgeStyle=orthogonalEdgeStyle;rounded=0;orthogonalLoop=1;jettySize=auto;html=1;exitX=0;exitY=0.75;exitDx=0;exitDy=0;entryX=1;entryY=0.75;entryDx=0;entryDy=0;fontSize=8;" parent="1" source="M3vEg7xzVZKepDbDYmci-10" target="M3vEg7xzVZKepDbDYmci-4" edge="1">
          <mxGeometry y="-7" relative="1" as="geometry">
            <mxPoint y="-1" as="offset" />
          </mxGeometry>
        </mxCell>
        <mxCell id="M3vEg7xzVZKepDbDYmci-10" value="Kubernetes Cluster" style="rounded=0;whiteSpace=wrap;html=1;" parent="1" vertex="1">
          <mxGeometry x="560" y="120" width="100" height="50" as="geometry" />
        </mxCell>
        <mxCell id="M3vEg7xzVZKepDbDYmci-30" value="" style="edgeStyle=orthogonalEdgeStyle;rounded=0;orthogonalLoop=1;jettySize=auto;html=1;exitX=0.25;exitY=1;exitDx=0;exitDy=0;entryX=0.25;entryY=0;entryDx=0;entryDy=0;fontSize=8;" parent="1" source="M3vEg7xzVZKepDbDYmci-16" target="M3vEg7xzVZKepDbDYmci-17" edge="1">
          <mxGeometry y="-35" relative="1" as="geometry">
            <mxPoint as="offset" />
          </mxGeometry>
        </mxCell>
        <mxCell id="5Kg0r2Z0x7C4g7Ewz3W_-38" value="Request" style="edgeLabel;html=1;align=center;verticalAlign=middle;resizable=0;points=[];fontSize=8;labelBackgroundColor=none;" vertex="1" connectable="0" parent="M3vEg7xzVZKepDbDYmci-30">
          <mxGeometry x="0.0115" y="1" relative="1" as="geometry">
            <mxPoint x="-26" as="offset" />
          </mxGeometry>
        </mxCell>
        <mxCell id="M3vEg7xzVZKepDbDYmci-47" value="Cached&lt;div&gt;Response&lt;/div&gt;" style="edgeStyle=orthogonalEdgeStyle;rounded=0;orthogonalLoop=1;jettySize=auto;html=1;exitX=0.75;exitY=0;exitDx=0;exitDy=0;entryX=0.75;entryY=1;entryDx=0;entryDy=0;strokeWidth=2;fontSize=8;" parent="1" source="M3vEg7xzVZKepDbDYmci-16" target="M3vEg7xzVZKepDbDYmci-4" edge="1">
          <mxGeometry x="-0.5928" y="-20" relative="1" as="geometry">
            <Array as="points">
              <mxPoint x="275" y="250" />
              <mxPoint x="435" y="250" />
            </Array>
            <mxPoint as="offset" />
          </mxGeometry>
        </mxCell>
        <mxCell id="M3vEg7xzVZKepDbDYmci-16" value="Response Caching" style="rounded=0;whiteSpace=wrap;html=1;" parent="1" vertex="1">
          <mxGeometry x="200" y="280" width="100" height="50" as="geometry" />
        </mxCell>
        <mxCell id="M3vEg7xzVZKepDbDYmci-31" value="" style="edgeStyle=orthogonalEdgeStyle;rounded=0;orthogonalLoop=1;jettySize=auto;html=1;exitX=0.75;exitY=0;exitDx=0;exitDy=0;entryX=0.75;entryY=1;entryDx=0;entryDy=0;fontSize=8;" parent="1" source="M3vEg7xzVZKepDbDYmci-17" target="M3vEg7xzVZKepDbDYmci-16" edge="1">
          <mxGeometry x="-0.2" y="-25" relative="1" as="geometry">
            <mxPoint as="offset" />
          </mxGeometry>
        </mxCell>
        <mxCell id="5Kg0r2Z0x7C4g7Ewz3W_-39" value="&lt;font style=&quot;font-size: 8px;&quot;&gt;Cached&lt;br&gt;Response&lt;br&gt;&lt;/font&gt;" style="edgeLabel;html=1;align=center;verticalAlign=middle;resizable=0;points=[];" vertex="1" connectable="0" parent="M3vEg7xzVZKepDbDYmci-31">
          <mxGeometry x="-0.1954" y="-1" relative="1" as="geometry">
            <mxPoint x="24" y="-2" as="offset" />
          </mxGeometry>
        </mxCell>
        <mxCell id="M3vEg7xzVZKepDbDYmci-17" value="Cached Responses" style="shape=process;whiteSpace=wrap;html=1;backgroundOutline=1;" parent="1" vertex="1">
          <mxGeometry x="200" y="359" width="100" height="50" as="geometry" />
        </mxCell>
        <mxCell id="M3vEg7xzVZKepDbDYmci-44" value="Schema" style="edgeStyle=orthogonalEdgeStyle;rounded=0;orthogonalLoop=1;jettySize=auto;html=1;exitX=0.75;exitY=0;exitDx=0;exitDy=0;entryX=0.75;entryY=1;entryDx=0;entryDy=0;strokeWidth=2;fontSize=8;" parent="1" source="M3vEg7xzVZKepDbDYmci-34" target="M3vEg7xzVZKepDbDYmci-4" edge="1">
          <mxGeometry x="-0.9259" y="-25" relative="1" as="geometry">
            <Array as="points">
              <mxPoint x="595" y="250" />
              <mxPoint x="435" y="250" />
            </Array>
            <mxPoint as="offset" />
          </mxGeometry>
        </mxCell>
        <mxCell id="M3vEg7xzVZKepDbDYmci-34" value="OpenAPI Schema Generation" style="rounded=0;whiteSpace=wrap;html=1;" parent="1" vertex="1">
          <mxGeometry x="520" y="280" width="100" height="50" as="geometry" />
        </mxCell>
        <mxCell id="M3vEg7xzVZKepDbDYmci-37" style="edgeStyle=orthogonalEdgeStyle;rounded=0;orthogonalLoop=1;jettySize=auto;html=1;exitX=0.75;exitY=0;exitDx=0;exitDy=0;entryX=0.75;entryY=1;entryDx=0;entryDy=0;fontStyle=1;strokeWidth=2;" parent="1" source="M3vEg7xzVZKepDbDYmci-35" target="M3vEg7xzVZKepDbDYmci-34" edge="1">
          <mxGeometry relative="1" as="geometry" />
        </mxCell>
        <mxCell id="5Kg0r2Z0x7C4g7Ewz3W_-56" value="Class definition" style="edgeLabel;html=1;align=center;verticalAlign=middle;resizable=0;points=[];fontSize=8;" vertex="1" connectable="0" parent="M3vEg7xzVZKepDbDYmci-37">
          <mxGeometry x="-0.8095" y="1" relative="1" as="geometry">
            <mxPoint x="31" as="offset" />
          </mxGeometry>
        </mxCell>
        <mxCell id="M3vEg7xzVZKepDbDYmci-35" value="Source Code" style="shape=process;whiteSpace=wrap;html=1;backgroundOutline=1;" parent="1" vertex="1">
          <mxGeometry x="520" y="450" width="100" height="50" as="geometry" />
        </mxCell>
        <mxCell id="M3vEg7xzVZKepDbDYmci-41" style="edgeStyle=orthogonalEdgeStyle;rounded=0;orthogonalLoop=1;jettySize=auto;html=1;exitX=0.25;exitY=1;exitDx=0;exitDy=0;entryX=0.25;entryY=0;entryDx=0;entryDy=0;" parent="1" source="M3vEg7xzVZKepDbDYmci-40" target="M3vEg7xzVZKepDbDYmci-4" edge="1">
          <mxGeometry relative="1" as="geometry" />
        </mxCell>
        <mxCell id="M3vEg7xzVZKepDbDYmci-40" value="External APIs" style="rounded=0;whiteSpace=wrap;html=1;" parent="1" vertex="1">
          <mxGeometry x="360" y="30" width="100" height="50" as="geometry" />
        </mxCell>
        <mxCell id="M3vEg7xzVZKepDbDYmci-54" value="Image" style="edgeStyle=orthogonalEdgeStyle;rounded=0;orthogonalLoop=1;jettySize=auto;html=1;exitX=0.75;exitY=0;exitDx=0;exitDy=0;entryX=0.75;entryY=1;entryDx=0;entryDy=0;strokeWidth=2;fontSize=8;" parent="1" edge="1">
          <mxGeometry x="-0.9535" y="-15" relative="1" as="geometry">
            <Array as="points">
              <mxPoint x="755" y="250" />
              <mxPoint x="435" y="250" />
            </Array>
            <mxPoint as="offset" />
            <mxPoint x="755" y="280" as="sourcePoint" />
            <mxPoint x="435" y="170" as="targetPoint" />
          </mxGeometry>
        </mxCell>
        <mxCell id="5Kg0r2Z0x7C4g7Ewz3W_-11" style="edgeStyle=orthogonalEdgeStyle;rounded=0;orthogonalLoop=1;jettySize=auto;html=1;exitX=0.75;exitY=0;exitDx=0;exitDy=0;entryX=0.75;entryY=1;entryDx=0;entryDy=0;strokeWidth=2;" edge="1" parent="1" source="M3vEg7xzVZKepDbDYmci-49" target="5Kg0r2Z0x7C4g7Ewz3W_-7">
          <mxGeometry relative="1" as="geometry" />
        </mxCell>
        <mxCell id="5Kg0r2Z0x7C4g7Ewz3W_-29" value="&lt;font style=&quot;font-size: 8px;&quot;&gt;Images&lt;/font&gt;" style="edgeLabel;html=1;align=center;verticalAlign=middle;resizable=0;points=[];labelBackgroundColor=none;" vertex="1" connectable="0" parent="5Kg0r2Z0x7C4g7Ewz3W_-11">
          <mxGeometry x="0.6945" relative="1" as="geometry">
            <mxPoint x="15" as="offset" />
          </mxGeometry>
        </mxCell>
        <mxCell id="M3vEg7xzVZKepDbDYmci-49" value="ML-model Containerization " style="rounded=0;whiteSpace=wrap;html=1;" parent="1" vertex="1">
          <mxGeometry x="680" y="280" width="100" height="50" as="geometry" />
        </mxCell>
        <mxCell id="M3vEg7xzVZKepDbDYmci-52" style="edgeStyle=orthogonalEdgeStyle;rounded=0;orthogonalLoop=1;jettySize=auto;html=1;exitX=0.75;exitY=0;exitDx=0;exitDy=0;entryX=0.75;entryY=1;entryDx=0;entryDy=0;strokeWidth=2;" parent="1" source="M3vEg7xzVZKepDbDYmci-50" target="M3vEg7xzVZKepDbDYmci-49" edge="1">
          <mxGeometry relative="1" as="geometry" />
        </mxCell>
        <mxCell id="5Kg0r2Z0x7C4g7Ewz3W_-9" style="edgeStyle=orthogonalEdgeStyle;rounded=0;orthogonalLoop=1;jettySize=auto;html=1;exitX=0.75;exitY=0;exitDx=0;exitDy=0;entryX=0.75;entryY=1;entryDx=0;entryDy=0;strokeWidth=2;" edge="1" parent="1" source="M3vEg7xzVZKepDbDYmci-50" target="M3vEg7xzVZKepDbDYmci-34">
          <mxGeometry relative="1" as="geometry" />
        </mxCell>
        <mxCell id="5Kg0r2Z0x7C4g7Ewz3W_-64" value="Class definition&lt;br style=&quot;font-size: 8px;&quot;&gt;or&lt;br style=&quot;font-size: 8px;&quot;&gt;CRD" style="edgeLabel;html=1;align=center;verticalAlign=middle;resizable=0;points=[];fontSize=8;labelBackgroundColor=none;" vertex="1" connectable="0" parent="5Kg0r2Z0x7C4g7Ewz3W_-9">
          <mxGeometry x="0.8735" y="2" relative="1" as="geometry">
            <mxPoint x="-29" y="13" as="offset" />
          </mxGeometry>
        </mxCell>
        <mxCell id="5Kg0r2Z0x7C4g7Ewz3W_-70" value="CRD" style="edgeLabel;html=1;align=center;verticalAlign=middle;resizable=0;points=[];labelBackgroundColor=none;fontSize=8;" vertex="1" connectable="0" parent="5Kg0r2Z0x7C4g7Ewz3W_-9">
          <mxGeometry x="-0.8898" y="-1" relative="1" as="geometry">
            <mxPoint x="12" as="offset" />
          </mxGeometry>
        </mxCell>
        <mxCell id="M3vEg7xzVZKepDbDYmci-50" value="CRDs" style="shape=process;whiteSpace=wrap;html=1;backgroundOutline=1;" parent="1" vertex="1">
          <mxGeometry x="680" y="450" width="100" height="50" as="geometry" />
        </mxCell>
        <mxCell id="5Kg0r2Z0x7C4g7Ewz3W_-52" style="edgeStyle=orthogonalEdgeStyle;rounded=0;orthogonalLoop=1;jettySize=auto;html=1;exitX=1;exitY=0.5;exitDx=0;exitDy=0;entryX=0;entryY=0.5;entryDx=0;entryDy=0;" edge="1" parent="1" source="5Kg0r2Z0x7C4g7Ewz3W_-2" target="5Kg0r2Z0x7C4g7Ewz3W_-3">
          <mxGeometry relative="1" as="geometry" />
        </mxCell>
        <mxCell id="5Kg0r2Z0x7C4g7Ewz3W_-53" value="Request" style="edgeLabel;html=1;align=center;verticalAlign=middle;resizable=0;points=[];fontSize=8;" vertex="1" connectable="0" parent="5Kg0r2Z0x7C4g7Ewz3W_-52">
          <mxGeometry x="-0.0524" y="1" relative="1" as="geometry">
            <mxPoint x="-3" y="-19" as="offset" />
          </mxGeometry>
        </mxCell>
        <mxCell id="5Kg0r2Z0x7C4g7Ewz3W_-67" style="edgeStyle=orthogonalEdgeStyle;rounded=0;orthogonalLoop=1;jettySize=auto;html=1;exitX=1;exitY=0.75;exitDx=0;exitDy=0;entryX=0;entryY=0.75;entryDx=0;entryDy=0;" edge="1" parent="1" source="5Kg0r2Z0x7C4g7Ewz3W_-2" target="5Kg0r2Z0x7C4g7Ewz3W_-3">
          <mxGeometry relative="1" as="geometry" />
        </mxCell>
        <mxCell id="5Kg0r2Z0x7C4g7Ewz3W_-68" style="edgeStyle=orthogonalEdgeStyle;rounded=0;orthogonalLoop=1;jettySize=auto;html=1;exitX=1;exitY=0.25;exitDx=0;exitDy=0;entryX=0;entryY=0.25;entryDx=0;entryDy=0;" edge="1" parent="1" source="5Kg0r2Z0x7C4g7Ewz3W_-2" target="5Kg0r2Z0x7C4g7Ewz3W_-3">
          <mxGeometry relative="1" as="geometry" />
        </mxCell>
        <mxCell id="5Kg0r2Z0x7C4g7Ewz3W_-2" value="Load Balancing" style="rounded=0;whiteSpace=wrap;html=1;" vertex="1" parent="1">
          <mxGeometry x="840" y="280" width="100" height="50" as="geometry" />
        </mxCell>
        <mxCell id="5Kg0r2Z0x7C4g7Ewz3W_-14" style="edgeStyle=orthogonalEdgeStyle;rounded=0;orthogonalLoop=1;jettySize=auto;html=1;exitX=0.75;exitY=0;exitDx=0;exitDy=0;entryX=0.75;entryY=1;entryDx=0;entryDy=0;strokeWidth=2;" edge="1" parent="1" source="5Kg0r2Z0x7C4g7Ewz3W_-3" target="M3vEg7xzVZKepDbDYmci-4">
          <mxGeometry relative="1" as="geometry">
            <Array as="points">
              <mxPoint x="1075" y="250" />
              <mxPoint x="435" y="250" />
            </Array>
          </mxGeometry>
        </mxCell>
        <mxCell id="5Kg0r2Z0x7C4g7Ewz3W_-55" value="Response" style="edgeLabel;html=1;align=center;verticalAlign=middle;resizable=0;points=[];fontSize=8;labelBackgroundColor=none;" vertex="1" connectable="0" parent="5Kg0r2Z0x7C4g7Ewz3W_-14">
          <mxGeometry x="-0.9718" y="3" relative="1" as="geometry">
            <mxPoint x="23" as="offset" />
          </mxGeometry>
        </mxCell>
        <mxCell id="5Kg0r2Z0x7C4g7Ewz3W_-3" value="Service Deployment" style="rounded=0;whiteSpace=wrap;html=1;" vertex="1" parent="1">
          <mxGeometry x="1000" y="280" width="100" height="50" as="geometry" />
        </mxCell>
        <mxCell id="5Kg0r2Z0x7C4g7Ewz3W_-15" style="edgeStyle=orthogonalEdgeStyle;rounded=0;orthogonalLoop=1;jettySize=auto;html=1;exitX=0.75;exitY=0;exitDx=0;exitDy=0;entryX=0.75;entryY=1;entryDx=0;entryDy=0;strokeWidth=2;" edge="1" parent="1" source="5Kg0r2Z0x7C4g7Ewz3W_-4" target="M3vEg7xzVZKepDbDYmci-4">
          <mxGeometry relative="1" as="geometry">
            <Array as="points">
              <mxPoint x="1235" y="250" />
              <mxPoint x="435" y="250" />
            </Array>
          </mxGeometry>
        </mxCell>
        <mxCell id="5Kg0r2Z0x7C4g7Ewz3W_-24" value="Request&lt;br&gt;Status" style="edgeLabel;html=1;align=center;verticalAlign=middle;resizable=0;points=[];fontSize=8;labelBackgroundColor=none;" vertex="1" connectable="0" parent="5Kg0r2Z0x7C4g7Ewz3W_-15">
          <mxGeometry x="-0.974" y="2" relative="1" as="geometry">
            <mxPoint x="18" y="1" as="offset" />
          </mxGeometry>
        </mxCell>
        <mxCell id="5Kg0r2Z0x7C4g7Ewz3W_-4" value="Reqest Validation" style="rounded=0;whiteSpace=wrap;html=1;strokeWidth=1;" vertex="1" parent="1">
          <mxGeometry x="1160" y="280" width="100" height="50" as="geometry" />
        </mxCell>
        <mxCell id="5Kg0r2Z0x7C4g7Ewz3W_-12" style="edgeStyle=orthogonalEdgeStyle;rounded=0;orthogonalLoop=1;jettySize=auto;html=1;exitX=0.25;exitY=1;exitDx=0;exitDy=0;entryX=0.25;entryY=0;entryDx=0;entryDy=0;" edge="1" parent="1" source="5Kg0r2Z0x7C4g7Ewz3W_-7" target="M3vEg7xzVZKepDbDYmci-49">
          <mxGeometry relative="1" as="geometry" />
        </mxCell>
        <mxCell id="5Kg0r2Z0x7C4g7Ewz3W_-30" value="&lt;div&gt;&lt;font style=&quot;font-size: 8px;&quot;&gt;Images&lt;/font&gt;&lt;/div&gt;" style="edgeLabel;html=1;align=center;verticalAlign=middle;resizable=0;points=[];" vertex="1" connectable="0" parent="5Kg0r2Z0x7C4g7Ewz3W_-12">
          <mxGeometry x="-0.7527" y="-1" relative="1" as="geometry">
            <mxPoint x="-14" as="offset" />
          </mxGeometry>
        </mxCell>
        <mxCell id="5Kg0r2Z0x7C4g7Ewz3W_-7" value="Docker index" style="shape=process;whiteSpace=wrap;html=1;backgroundOutline=1;" vertex="1" parent="1">
          <mxGeometry x="680" y="120" width="100" height="50" as="geometry" />
        </mxCell>
        <mxCell id="5Kg0r2Z0x7C4g7Ewz3W_-10" style="edgeStyle=orthogonalEdgeStyle;rounded=0;orthogonalLoop=1;jettySize=auto;html=1;exitX=0.75;exitY=0;exitDx=0;exitDy=0;entryX=0.75;entryY=1;entryDx=0;entryDy=0;strokeWidth=2;" edge="1" parent="1" source="5Kg0r2Z0x7C4g7Ewz3W_-8" target="M3vEg7xzVZKepDbDYmci-49">
          <mxGeometry relative="1" as="geometry" />
        </mxCell>
        <mxCell id="5Kg0r2Z0x7C4g7Ewz3W_-51" value="CRD&lt;br&gt;Binary model" style="edgeLabel;html=1;align=center;verticalAlign=middle;resizable=0;points=[];fontSize=8;" vertex="1" connectable="0" parent="5Kg0r2Z0x7C4g7Ewz3W_-10">
          <mxGeometry x="0.8622" y="-1" relative="1" as="geometry">
            <mxPoint x="29" y="-4" as="offset" />
          </mxGeometry>
        </mxCell>
        <mxCell id="5Kg0r2Z0x7C4g7Ewz3W_-59" value="Binary model" style="edgeLabel;html=1;align=center;verticalAlign=middle;resizable=0;points=[];fontSize=8;" vertex="1" connectable="0" parent="5Kg0r2Z0x7C4g7Ewz3W_-10">
          <mxGeometry x="-0.8939" y="-1" relative="1" as="geometry">
            <mxPoint x="23" y="1" as="offset" />
          </mxGeometry>
        </mxCell>
        <mxCell id="5Kg0r2Z0x7C4g7Ewz3W_-8" value="ML-Models Storage" style="shape=process;whiteSpace=wrap;html=1;backgroundOutline=1;" vertex="1" parent="1">
          <mxGeometry x="840" y="450" width="100" height="50" as="geometry" />
        </mxCell>
      </root>
    </mxGraphModel>
  </diagram>
</mxfile>
